HIERARCHY
ROOT Root
{
  OFFSET 8.93557 11.8871 -0.956729
  CHANNELS 6 Xposition Yposition Zposition Zrotation Xrotation Yrotation
  JOINT Spine
  {
    OFFSET 5.3114 0 0
    CHANNELS 3 Zrotation Xrotation Yrotation
    JOINT Spine1
    {
      OFFSET 2.79004 0 0
      CHANNELS 3 Zrotation Xrotation Yrotation
      JOINT Neck
      {
        OFFSET 1.43377 0 0
        CHANNELS 3 Zrotation Xrotation Yrotation
        JOINT Head
        {
          OFFSET 1.86043 0 0
          CHANNELS 3 Zrotation Xrotation Yrotation
          End Site
          {
            OFFSET 0 0 0
          }
        }
      }
      JOINT LeftArm
      {
        OFFSET 0.0387506 0 2.55754
        CHANNELS 3 Zrotation Xrotation Yrotation
        JOINT LeftForeArm
        {
          OFFSET 4.24845 0 0
          CHANNELS 3 Zrotation Xrotation Yrotation
          JOINT LeftHand
          {
            OFFSET 4.01008 0 0
            CHANNELS 3 Zrotation Xrotation Yrotation
            End Site
            {
              OFFSET 0 0 0
            }
          }
        }
      }
      JOINT RightArm
      {
        OFFSET 0.0387506 0 -2.55754
        CHANNELS 3 Zrotation Xrotation Yrotation
        JOINT RightForeArm
        {
          OFFSET -4.24845 0 0
          CHANNELS 3 Zrotation Xrotation Yrotation
          JOINT RightHand
          {
            OFFSET -4.01009 0 0
            CHANNELS 3 Zrotation Xrotation Yrotation
            End Site
            {
              OFFSET 0 0 0
            }
          }
        }
      }
    }
  }
  JOINT LeftUpLeg
  {
    OFFSET -1.23318 0 2.05692
    CHANNELS 3 Zrotation Xrotation Yrotation
    JOINT LeftLeg
    {
      OFFSET 5.46397 0 0
      CHANNELS 3 Zrotation Xrotation Yrotation
      JOINT LeftFoot
      {
        OFFSET 4.68898 0 0
        CHANNELS 3 Zrotation Xrotation Yrotation
        End Site
        {
          OFFSET 0 0 0
        }
      }
    }
  }
  JOINT RightUpLeg
  {
    OFFSET -1.24454 0 -2.05007
    CHANNELS 3 Zrotation Xrotation Yrotation
    JOINT RightLeg
    {
      OFFSET -5.46397 0 0
      CHANNELS 3 Zrotation Xrotation Yrotation
      JOINT RightFoot
      {
        OFFSET -4.68901 0 0
        CHANNELS 3 Zrotation Xrotation Yrotation
        End Site
        {
          OFFSET 0 0 0
        }
      }
    }
  }
}
MOTION
Frames:	26
Frame Time:	0.0416667
-6.44403 11.8204 8.13621 -101.469 9.14111 -179.573 -5.44594 1.23932 5.07899 7.31097 0.542416 1.83733 -17.6117 0.823531 -2.60503 33.7083 1.59736 -1.38024 5.25685 -34.4702 -171.029 31.4932 2.29838 18.1373 -1.64366 -18.1201 174.192 -179.08 -17.4511 -157.689 29.0584 1.76138 16.7842 1.42541 15.8719 174.256 -34.4096 0.867088 -178.729 -58.2706 -1.20374 -1.8892 22.3351 -6.20943 179.42 157.199 -4.12631 177.258 -32.7719 -0.897667 -1.31868 -1.03165 -11.2024 177.06 
-6.1083 11.8174 8.25988 -101.416 7.2581 179.862 -5.71625 1.66852 5.31624 7.56788 0.657307 1.56291 -18.0384 0.449054 -3.27844 33.9504 0.894652 -0.420993 5.15381 -35.1114 -171.232 30.8731 2.15526 17.7945 -1.63809 -18.0594 174.195 179.833 -19.2429 -156.884 31.8843 2.38994 18.3534 1.23166 13.8032 174.305 -37.1976 2.37904 -179.206 -51.879 -1.19321 -1.70816 22.5437 -6.11969 179.708 160.45 -2.79639 176.776 -31.0282 -0.902712 -1.27249 -1.40909 -12.0257 177.015 
-5.77023 11.8366 8.37199 -101.378 5.92681 179.624 -5.73852 2.23243 4.8778 7.63044 0.811197 1.56658 -18.0829 0.0930437 -3.55571 33.2978 0.240784 0.25626 5.33135 -35.6015 -171.321 30.1679 1.99786 17.4032 -1.58236 -17.5232 174.213 178.496 -20.6144 -156.462 34.8421 3.13563 19.9703 1.04961 11.8303 174.348 -39.1374 4.36212 -179.731 -44.1445 -1.09236 -1.51924 20.97 -6.05738 179.807 164.095 -2.13831 176.388 -28.0244 -0.880593 -1.19316 -1.5868 -12.3455 177.022 
-5.42441 11.8539 8.46795 -101.413 4.67497 179.102 -5.82732 2.45532 4.68606 7.78842 0.867617 1.47646 -18.5899 -0.142565 -3.4592 32.9961 -0.200175 0.50377 5.53581 -35.9089 -171.273 29.2089 1.7917 16.8687 -1.55428 -17.2344 174.222 177.332 -21.8923 -156.486 38.3116 4.1212 21.8308 0.880982 9.97526 174.382 -40.8538 5.75335 179.961 -36.2204 -0.897306 -1.36234 17.0329 -6.3621 179.712 168.45 -0.965328 175.752 -23.4693 -0.84351 -1.092 -1.55373 -12.3524 177.119 
-5.08374 11.8499 8.547 -101.446 3.92527 178.388 -5.92253 2.75756 4.69971 7.54535 0.946736 1.39799 -19.1293 -0.306888 -3.40769 33.6125 -0.412395 0.878345 6.15023 -35.8768 -171.306 28.3038 1.60563 16.3624 -1.49528 -16.6226 174.242 176.622 -23.1783 -156.601 41.7451 5.21864 23.6238 0.759504 8.6241 174.402 -42.2829 3.05527 179.271 -29.8068 -0.756772 -1.17063 16.9674 -9.18965 -179.473 173.064 -0.232873 174.868 -18.0098 -0.801257 -1.02399 -1.61393 -12.2541 177.268 
-4.73925 11.8256 8.61272 -101.261 3.56293 177.852 -5.73088 3.19621 4.39968 7.64803 1.05163 1.20398 -20.3118 -0.421493 -3.10693 34.5597 -0.524869 1.06312 6.51728 -35.5679 -170.923 27.3939 1.42747 15.8512 -1.44564 -16.1077 174.257 176.211 -24.81 -156.979 45.3777 6.50057 25.4691 0.629438 7.16592 174.422 -43.1298 -1.05445 178.651 -25.3202 -0.666807 -0.99798 18.3533 -13.3933 -178.141 177.959 0.552825 174.175 -12.578 -0.783399 -1.00449 -1.52229 -12.3171 177.514 
-4.38921 11.759 8.67228 -101.223 4.11413 177.44 -6.03332 3.88947 4.02104 7.67705 1.25762 1.38031 -20.3527 -0.382482 -3.07276 34.9646 -0.469179 0.856386 7.02618 -34.7671 -171.122 26.879 1.32991 15.5611 -1.38355 -15.4527 174.276 176.937 -26.6362 -157.145 48.4843 7.69816 26.9956 0.57863 6.59317 174.428 -43.833 -3.36487 179.085 -22.9254 -0.601204 -0.933593 18.9558 -15.4736 -177.441 -178.129 0.408258 173.588 -8.47607 -0.794373 -1.00162 -2.13054 -12.6387 177.632 
-4.03801 11.6936 8.7233 -100.92 5.00784 177.201 -5.72705 4.71505 3.29132 7.83441 1.47403 1.31043 -21.0628 -0.355073 -2.78581 34.9648 -0.477582 0.499846 7.09923 -33.7846 -170.701 26.0521 1.179 15.0942 -1.33094 -14.8995 174.292 176.923 -28.3327 -158.095 50.9215 8.70097 28.1569 0.59086 6.73088 174.426 -43.6525 -5.17371 179.913 -22.8173 -0.589795 -0.940606 18.4903 -15.5087 -177.611 -175.881 -0.130969 173.312 -8.43595 -0.773001 -0.999282 -1.03045 -12.953 177.754 
-3.65527 11.6337 8.76165 -100.622 6.22638 176.977 -5.9879 5.06692 2.6711 7.87782 1.57023 1.38862 -20.6428 0.038081 -2.77899 34.5501 0.20757 0.0737683 7.89619 -32.4113 -170.697 25.7557 1.12711 14.9263 -1.31156 -14.7071 174.297 178.694 -30.5968 -158.824 52.8751 9.54464 29.0623 0.663455 7.54734 174.416 -43.2794 -3.69128 -178.889 -25.2956 -0.607595 -0.981743 16.6255 -14.9085 -178.355 -173.668 -0.843002 173.237 -8.45672 -0.792307 -1.00146 -0.486825 -12.6796 177.87 
-3.23414 11.6182 8.78695 -100.554 7.42585 177.308 -6.77533 5.49466 1.38383 8.20262 1.67307 1.38865 -20.423 0.443067 -2.58101 34.2487 1.00574 -0.257285 8.77151 -31.3487 -170.25 25.4839 1.07961 14.7724 -1.28143 -14.3795 174.306 -178.856 -32.2881 -159.865 54.3004 10.1813 29.708 0.775456 8.79999 174.399 -42.8126 -1.06 -178.222 -29.0835 -0.679605 -1.08493 16.1412 -17.8245 -177.972 -171.734 -2.1332 173.907 -8.26495 -0.787963 -1.00748 -0.611374 -11.0903 177.845 
-2.78105 11.6366 8.79351 -100.683 7.44788 178.603 -7.51159 4.94709 -1.15282 8.26365 1.48992 1.70421 -20.1493 0.961097 -2.71071 33.8577 1.95613 -0.456793 9.18055 -29.6557 -170.187 24.8746 0.976765 14.4265 -1.23416 -13.8692 174.319 -175.719 -33.8394 -160.978 54.5659 10.3016 29.8273 0.887869 10.0478 174.379 -42.0862 3.14584 -178.648 -31.4134 -0.713838 -1.21761 11.8652 -17.3615 -179.159 -171.104 -2.94417 175.622 -11.0591 -0.78315 -1.00841 0.390922 -8.75328 177.818 
-2.34744 11.6766 8.79377 -100.608 6.64827 178.75 -7.59178 4.10638 -2.42293 8.00455 1.23755 1.92793 -20.2622 1.25853 -2.90124 34.1234 2.4086 -0.776093 8.43091 -28.21 -170.145 23.8237 0.807832 13.8285 -1.1314 -12.7608 174.345 -172.981 -33.9034 -162.588 53.3094 9.73674 29.2603 0.964137 10.8879 174.363 -41.2686 4.51341 -178.846 -33.9072 -0.811834 -1.32284 11.6877 -15.01 -179.389 -172.229 -3.57602 176.006 -16.8632 -0.825446 -1.01554 1.79688 -5.29346 177.709 
-1.90623 11.7526 8.77364 -100.462 6.68099 179.088 -7.75144 3.83096 -3.23977 7.54488 1.12948 1.82783 -20.2312 1.64919 -2.89511 35.1344 3.07755 -1.4297 7.89548 -27.665 -169.941 23.402 0.743012 13.588 -1.10788 -12.5058 174.351 -170.305 -33.0544 -164.398 50.9297 8.70476 28.1602 1.00308 11.3138 174.355 -38.7339 4.15186 -179.669 -34.0854 -0.873352 -1.32844 13.736 -13.7318 -179.056 -174.899 -2.95408 177.162 -25.1274 -0.934513 -1.1283 5.013 0.506205 177.418 
-1.49623 11.828 8.73935 -100.78 7.33324 -179.907 -8.28733 3.56179 -4.27981 7.47381 1.03219 1.89983 -20.1568 2.03455 -2.67933 35.7983 3.65676 -2.49304 6.79002 -27.5617 -170.058 24.0345 0.840563 13.9487 -1.13648 -12.8171 174.345 -168.951 -31.9052 -165.802 47.4199 7.27626 26.4791 1.02028 11.506 174.353 -36.1339 4.6056 179.144 -33.4451 -0.918744 -1.30897 15.5891 -13.6225 -178.68 179.553 -1.9242 179.614 -37.1565 -1.08435 -1.43611 8.58034 6.87211 176.602 
-1.10328 11.8904 8.71503 -101.048 8.15792 -178.848 -8.39554 2.83366 -5.38413 7.52869 0.835836 2.4094 -20.6393 2.63342 -2.09017 36.3509 4.63297 -3.90375 5.417 -28.4558 -170.124 25.5502 1.09124 14.8099 -1.24605 -13.9992 174.317 -168.781 -30.4079 -166.435 42.9292 5.62086 24.2332 1.08723 12.2429 174.341 -33.3618 5.15885 177.944 -32.3221 -0.950331 -1.2777 17.557 -13.3684 -178.325 173.052 -2.25898 -178.161 -48.9709 -1.16026 -1.78848 7.38653 8.2106 176.657 
-0.737207 11.9338 8.69232 -101.524 9.05603 -178.659 -8.62622 1.99016 -5.18748 7.55635 0.613786 2.691 -20.306 3.17278 -1.7978 36.1607 5.70946 -4.36307 4.31744 -30.432 -169.461 27.3118 1.41092 15.8052 -1.32499 -14.8424 174.295 -169.675 -26.8355 -167.452 37.9912 4.02712 21.66 1.22061 13.6921 174.311 -31.5071 5.4251 177.721 -31.9789 -0.963418 -1.27024 19.6472 -12.6869 -178.188 166.51 -3.20765 -177.293 -56.8975 -1.1148 -2.06024 1.5252 5.16877 177.377 
-0.378255 11.957 8.65453 -101.113 9.23917 -178.962 -7.65848 0.512729 -4.33231 7.40222 0.215382 2.68454 -20.506 3.39742 -1.02377 37.0028 6.14495 -5.31985 2.42065 -32.6075 -168.24 28.1042 1.56575 16.2505 -1.37806 -15.4157 174.28 -170.972 -22.0574 -168.167 33.1519 2.69714 19.0507 1.30062 14.5556 174.293 -29.195 4.86512 177.39 -32.4201 -0.993762 -1.28164 22.3899 -12.062 -177.944 161.28 -3.64151 -176.834 -60.6981 -1.05315 -2.1958 -2.16797 2.8361 177.469 
-0.0065252 11.9446 8.61266 -100.691 8.88776 -179.12 -7.06467 -1.03015 -3.62372 7.14667 -0.203033 2.83943 -19.9183 3.56916 -0.429808 38.6263 6.56293 -6.0067 0.419031 -34.299 -167.092 28.2325 1.59142 16.3223 -1.32729 -14.948 174.293 -172.125 -14.9877 -168.786 28.5138 1.65235 16.478 1.50116 16.6717 174.235 -27.1164 3.82219 176.54 -33.1085 -1.03873 -1.2976 24.9576 -11.3576 -177.761 156.527 -4.03815 -176.551 -61.1147 -1.01854 -2.20918 -4.9322 -0.514089 177.186 
0.380345 11.9015 8.5835 -100.655 8.56674 -179.142 -7.02379 -1.81199 -3.17009 7.31454 -0.396396 3.12728 -20.1472 3.48731 -0.202697 40.8227 6.59103 -5.84642 -1.91489 -36.33 -165.684 28.4312 1.63138 16.4337 -1.37936 -15.4582 174.279 -172.185 -9.38763 -168.814 25.437 1.07169 14.7457 1.51384 16.8025 174.231 -25.6214 4.28887 176.136 -34.4733 -1.08414 -1.32334 26.6104 -10.2412 -178.009 151.768 -4.91597 -176.72 -58.9173 -1.0145 -2.12479 -6.2316 -3.15434 176.856 
0.769053 11.8608 8.55327 -100.718 8.16081 -179.22 -6.98546 -2.48609 -2.64481 7.36995 -0.557841 3.4396 -19.7168 3.49479 -0.50319 41.0735 6.70545 -5.36178 -3.97687 -37.6628 -164.487 29.1198 1.77321 16.819 -1.32478 -14.9325 174.294 -172.381 -3.54266 -168.501 22.8907 0.665266 13.2966 1.90988 20.8535 174.103 -23.8666 4.3482 175.767 -35.2047 -1.12038 -1.33701 28.7978 -8.54403 -178.444 147.368 -5.97431 -177.333 -54.485 -1.00665 -1.96376 -6.89332 -3.89963 176.784 
1.16511 11.823 8.51932 -100.709 7.81685 -179.292 -6.52292 -2.80849 -2.04333 7.48888 -0.625467 3.55398 -20.2258 3.42194 -0.670089 41.4149 6.57759 -5.07639 -6.12585 -38.5499 -163.454 29.9516 1.94994 17.2832 -1.34334 -15.1137 174.289 -170.881 -3.77886 -167.794 23.0322 0.688117 13.3767 1.86405 20.3943 174.119 -21.6521 4.13245 175.259 -35.1357 -1.14028 -1.33601 30.7791 -7.26418 -178.78 144.023 -6.69845 -178.097 -47.9172 -0.957243 -1.7458 -8.41987 -3.8329 176.779 
1.57021 11.8136 8.48375 -100.697 7.25822 -179.239 -6.32119 -3.24056 -1.69381 7.49606 -0.740409 3.56835 -19.8548 3.33541 -0.816949 41.0986 6.47824 -4.73104 -7.15321 -39.007 -162.313 31.3383 2.2626 18.0518 -1.42468 -15.9067 174.267 -169.048 -4.6473 -167.557 23.8726 0.815523 13.8563 1.78551 19.6024 174.146 -18.6429 4.39469 174.65 -33.6827 -1.12948 -1.30799 31.5739 -6.57593 -179.024 141.984 -7.21974 -178.763 -39.1267 -0.865838 -1.48607 -9.12806 -2.34373 177.031 
1.97935 11.8089 8.44369 -100.768 6.25361 -178.841 -6.20638 -3.85993 -1.75408 7.44387 -0.906785 3.75715 -19.2072 3.36204 -1.15066 40.4834 6.4984 -4.54575 -7.96564 -39.0811 -161.901 32.9652 2.65226 18.9473 -1.46584 -16.3307 174.255 -167.637 -5.45452 -167.427 24.9769 0.993767 14.4846 1.63299 18.0418 174.195 -14.9317 5.04287 173.6 -30.7719 -1.10691 -1.24019 30.7039 -7.23291 -178.845 140.859 -7.64373 -178.941 -29.4429 -0.737479 -1.23973 -8.49295 -0.580569 177.314 
2.3864 11.8014 8.403 -100.636 5.28709 -178.61 -5.93047 -4.4077 -1.63931 7.37643 -1.06856 3.65752 -19.1134 3.36459 -1.18286 40.78 6.56429 -4.41534 -8.28692 -38.943 -161.486 34.3198 2.99743 19.6869 -1.50135 -16.6939 174.244 -167.099 -5.67677 -167.883 25.9807 1.16672 15.0537 1.51417 16.804 174.23 -11.0511 4.93907 172.771 -27.4463 -1.05558 -1.15988 29.8929 -6.00171 -179.48 140.803 -8.60406 -179.343 -19.8763 -0.600281 -1.04865 -8.18976 -0.494161 177.315 
2.79198 11.7798 8.37021 -100.247 4.49887 -178.58 -5.37549 -4.792 -1.16445 7.37581 -1.16898 3.63993 -19.3081 3.31888 -1.0863 41.2532 6.39883 -4.73286 -8.65063 -38.656 -161.732 35.1599 3.22099 20.1425 -1.53863 -17.0711 174.232 -167.303 -5.48321 -168.151 26.7499 1.30539 15.4885 1.41005 15.709 174.26 -7.01352 4.82212 172.241 -24.3761 -1.00867 -1.09651 29.3072 -5.22596 -179.867 141.612 -13.6158 179.923 -10.7025 -0.441951 -0.998182 -13.9118 -0.627148 177.041 
3.18965 11.7409 8.3422 -100.111 3.75456 -178.291 -5.48091 -5.14784 -0.995318 7.50906 -1.26452 3.63796 -19.2098 3.28037 -1.07592 41.4545 6.27419 -4.9178 -8.70263 -38.0049 -162.505 35.3446 3.27101 20.2424 -1.51516 -16.8602 174.239 -167.387 -6.13514 -168.165 27.5956 1.46637 15.9645 1.31853 14.7377 174.285 -3.30229 3.45418 171.289 -21.0091 -1.00587 -1.0486 29.2717 -5.8254 -179.382 141.433 -15.5964 179.46 -7.22607 -0.362496 -0.920524 -15.924 -0.37968 176.96 
